<?xml version="1.0" encoding="UTF-8" standalone="no"?>
<!DOCTYPE svg PUBLIC "-//W3C//DTD SVG 1.1//EN"
 "http://www.w3.org/Graphics/SVG/1.1/DTD/svg11.dtd">
<!-- Generated by graphviz version 2.47.0 (20210316.0004)
 -->
<!-- Title: dependencies Pages: 1 -->
<svg width="1707pt" height="284pt"
 viewBox="0.00 0.00 1707.00 284.00" xmlns="http://www.w3.org/2000/svg" xmlns:xlink="http://www.w3.org/1999/xlink">
<g id="graph0" class="graph" transform="scale(1 1) rotate(0) translate(4 280)">
<title>dependencies</title>
<polygon fill="white" stroke="transparent" points="-4,4 -4,-280 1703,-280 1703,4 -4,4"/>
<text text-anchor="start" x="828.51" y="-42.4" font-family="Times-12" font-weight="bold" font-size="14.00">Legend</text>
<polygon fill="#ffffb3" stroke="transparent" points="615.5,-10 615.5,-30 635.5,-30 635.5,-10 615.5,-10"/>
<text text-anchor="start" x="639.13" y="-15.4" font-family="Times-12" font-size="14.00"> &#160;Declarations</text>
<polygon fill="#8dd3c7" stroke="transparent" points="728.5,-10 728.5,-30 748.5,-30 748.5,-10 728.5,-10"/>
<text text-anchor="start" x="752.23" y="-15.4" font-family="Times-12" font-size="14.00"> &#160;Module</text>
<polygon fill="#80b1d3" stroke="transparent" points="814.5,-10 814.5,-30 834.5,-30 834.5,-10 814.5,-10"/>
<text text-anchor="start" x="838.28" y="-15.4" font-family="Times-12" font-size="14.00"> &#160;Bootstrap</text>
<polygon fill="#fdb462" stroke="transparent" points="911.5,-10 911.5,-30 931.5,-30 931.5,-10 911.5,-10"/>
<text text-anchor="start" x="935.17" y="-15.4" font-family="Times-12" font-size="14.00"> &#160;Providers</text>
<polygon fill="#fb8072" stroke="transparent" points="1007.5,-10 1007.5,-30 1027.5,-30 1027.5,-10 1007.5,-10"/>
<text text-anchor="start" x="1031.23" y="-15.4" font-family="Times-12" font-size="14.00"> &#160;Exports</text>
<g id="clust1" class="cluster">
<title>cluster_SharedModule</title>
<polygon fill="none" stroke="black" stroke-dasharray="1,5" points="8,-70 8,-268 1691,-268 1691,-70 8,-70"/>
</g>
<g id="clust2" class="cluster">
<title>cluster_SharedModule_declarations</title>
<polygon fill="none" stroke="black" points="25,-78 25,-130 1657,-130 1657,-78 25,-78"/>
</g>
<g id="clust14" class="cluster">
<title>cluster_SharedModule_exports</title>
<polygon fill="none" stroke="black" points="16,-208 16,-260 1683,-260 1683,-208 16,-208"/>
</g>
<!-- AddExerciseComponent -->
<g id="node1" class="node">
<title>AddExerciseComponent</title>
<polygon fill="#ffffb3" stroke="black" points="1648.63,-122 1495.37,-122 1495.37,-86 1648.63,-86 1648.63,-122"/>
<text text-anchor="middle" x="1572" y="-99.8" font-family="Times,serif" font-size="14.00">AddExerciseComponent</text>
</g>
<!-- SharedModule -->
<g id="node11" class="node">
<title>SharedModule</title>
<polygon fill="#8dd3c7" stroke="black" points="964.42,-187 961.42,-191 940.42,-191 937.42,-187 865.58,-187 865.58,-151 964.42,-151 964.42,-187"/>
<text text-anchor="middle" x="915" y="-164.8" font-family="Times,serif" font-size="14.00">SharedModule</text>
</g>
<!-- AddExerciseComponent&#45;&gt;SharedModule -->
<g id="edge1" class="edge">
<title>AddExerciseComponent&#45;&gt;SharedModule</title>
<path fill="none" stroke="black" d="M1508.33,-122.11C1508.33,-141.34 1508.33,-169 1508.33,-169 1508.33,-169 974.31,-169 974.31,-169"/>
<polygon fill="black" stroke="black" points="974.31,-165.5 964.31,-169 974.31,-172.5 974.31,-165.5"/>
</g>
<!-- AgrandarDirective -->
<g id="node2" class="node">
<title>AgrandarDirective</title>
<polygon fill="#ffffb3" stroke="black" points="1477.44,-122 1356.56,-122 1356.56,-86 1477.44,-86 1477.44,-122"/>
<text text-anchor="middle" x="1417" y="-99.8" font-family="Times,serif" font-size="14.00">AgrandarDirective</text>
</g>
<!-- AgrandarDirective&#45;&gt;SharedModule -->
<g id="edge2" class="edge">
<title>AgrandarDirective&#45;&gt;SharedModule</title>
<path fill="none" stroke="black" d="M1363.01,-122.03C1363.01,-139.06 1363.01,-162 1363.01,-162 1363.01,-162 974.23,-162 974.23,-162"/>
<polygon fill="black" stroke="black" points="974.23,-158.5 964.23,-162 974.23,-165.5 974.23,-158.5"/>
</g>
<!-- AgrandarDirective&#45;&gt;SharedModule -->
<g id="edge3" class="edge">
<title>AgrandarDirective&#45;&gt;SharedModule</title>
<path fill="none" stroke="black" d="M1368.89,-122.27C1368.89,-140.56 1368.89,-166 1368.89,-166 1368.89,-166 974.44,-166 974.44,-166"/>
<polygon fill="black" stroke="black" points="974.44,-162.5 964.44,-166 974.44,-169.5 974.44,-162.5"/>
</g>
<!-- CardExerciseComponent -->
<g id="node3" class="node">
<title>CardExerciseComponent</title>
<polygon fill="#ffffb3" stroke="black" points="1338.24,-122 1181.76,-122 1181.76,-86 1338.24,-86 1338.24,-122"/>
<text text-anchor="middle" x="1260" y="-99.8" font-family="Times,serif" font-size="14.00">CardExerciseComponent</text>
</g>
<!-- CardExerciseComponent&#45;&gt;SharedModule -->
<g id="edge4" class="edge">
<title>CardExerciseComponent&#45;&gt;SharedModule</title>
<path fill="none" stroke="black" d="M1189.26,-122.01C1189.26,-138.05 1189.26,-159 1189.26,-159 1189.26,-159 974.35,-159 974.35,-159"/>
<polygon fill="black" stroke="black" points="974.35,-155.5 964.35,-159 974.35,-162.5 974.35,-155.5"/>
</g>
<!-- CardRutineComponent -->
<g id="node4" class="node">
<title>CardRutineComponent</title>
<polygon fill="#ffffb3" stroke="black" points="1163.88,-122 1018.12,-122 1018.12,-86 1163.88,-86 1163.88,-122"/>
<text text-anchor="middle" x="1091" y="-99.8" font-family="Times,serif" font-size="14.00">CardRutineComponent</text>
</g>
<!-- CardRutineComponent&#45;&gt;SharedModule -->
<g id="edge5" class="edge">
<title>CardRutineComponent&#45;&gt;SharedModule</title>
<path fill="none" stroke="black" d="M1023.69,-122.12C1023.69,-136.78 1023.69,-155 1023.69,-155 1023.69,-155 974.26,-155 974.26,-155"/>
<polygon fill="black" stroke="black" points="974.26,-151.5 964.26,-155 974.26,-158.5 974.26,-151.5"/>
</g>
<!-- DetalleExerciseComponent -->
<g id="node5" class="node">
<title>DetalleExerciseComponent</title>
<polygon fill="#ffffb3" stroke="black" points="999.95,-122 830.05,-122 830.05,-86 999.95,-86 999.95,-122"/>
<text text-anchor="middle" x="915" y="-99.8" font-family="Times,serif" font-size="14.00">DetalleExerciseComponent</text>
</g>
<!-- DetalleExerciseComponent&#45;&gt;SharedModule -->
<g id="edge6" class="edge">
<title>DetalleExerciseComponent&#45;&gt;SharedModule</title>
<path fill="none" stroke="black" d="M915,-122.11C915,-122.11 915,-140.99 915,-140.99"/>
<polygon fill="black" stroke="black" points="911.5,-140.99 915,-150.99 918.5,-140.99 911.5,-140.99"/>
</g>
<!-- LoadingComponent -->
<g id="node6" class="node">
<title>LoadingComponent</title>
<polygon fill="#ffffb3" stroke="black" points="811.99,-122 684.01,-122 684.01,-86 811.99,-86 811.99,-122"/>
<text text-anchor="middle" x="748" y="-99.8" font-family="Times,serif" font-size="14.00">LoadingComponent</text>
</g>
<!-- LoadingComponent&#45;&gt;SharedModule -->
<g id="edge7" class="edge">
<title>LoadingComponent&#45;&gt;SharedModule</title>
<path fill="none" stroke="black" d="M750.62,-122.12C750.62,-136.78 750.62,-155 750.62,-155 750.62,-155 855.68,-155 855.68,-155"/>
<polygon fill="black" stroke="black" points="855.68,-158.5 865.68,-155 855.68,-151.5 855.68,-158.5"/>
</g>
<!-- ModalCitaComponent -->
<g id="node7" class="node">
<title>ModalCitaComponent</title>
<polygon fill="#ffffb3" stroke="black" points="665.71,-122 524.29,-122 524.29,-86 665.71,-86 665.71,-122"/>
<text text-anchor="middle" x="595" y="-99.8" font-family="Times,serif" font-size="14.00">ModalCitaComponent</text>
</g>
<!-- ModalCitaComponent&#45;&gt;SharedModule -->
<g id="edge8" class="edge">
<title>ModalCitaComponent&#45;&gt;SharedModule</title>
<path fill="none" stroke="black" d="M572.96,-122.28C572.96,-137.95 572.96,-158 572.96,-158 572.96,-158 855.63,-158 855.63,-158"/>
<polygon fill="black" stroke="black" points="855.63,-161.5 865.63,-158 855.63,-154.5 855.63,-161.5"/>
</g>
<!-- ModalConfirmComponent -->
<g id="node8" class="node">
<title>ModalConfirmComponent</title>
<polygon fill="#ffffb3" stroke="black" points="506.82,-122 341.18,-122 341.18,-86 506.82,-86 506.82,-122"/>
<text text-anchor="middle" x="424" y="-99.8" font-family="Times,serif" font-size="14.00">ModalConfirmComponent</text>
</g>
<!-- ModalConfirmComponent&#45;&gt;SharedModule -->
<g id="edge9" class="edge">
<title>ModalConfirmComponent&#45;&gt;SharedModule</title>
<path fill="none" stroke="black" d="M451.55,-122.04C451.55,-138.73 451.55,-161 451.55,-161 451.55,-161 855.4,-161 855.4,-161"/>
<polygon fill="black" stroke="black" points="855.4,-164.5 865.4,-161 855.4,-157.5 855.4,-164.5"/>
</g>
<!-- PrimeraLetraMayusPipe -->
<g id="node9" class="node">
<title>PrimeraLetraMayusPipe</title>
<polygon fill="#ffffb3" stroke="black" points="323.34,-122 170.66,-122 170.66,-86 323.34,-86 323.34,-122"/>
<text text-anchor="middle" x="247" y="-99.8" font-family="Times,serif" font-size="14.00">PrimeraLetraMayusPipe</text>
</g>
<!-- PrimeraLetraMayusPipe&#45;&gt;SharedModule -->
<g id="edge10" class="edge">
<title>PrimeraLetraMayusPipe&#45;&gt;SharedModule</title>
<path fill="none" stroke="black" d="M270.97,-122.3C270.97,-140.27 270.97,-165 270.97,-165 270.97,-165 855.53,-165 855.53,-165"/>
<polygon fill="black" stroke="black" points="855.53,-168.5 865.53,-165 855.53,-161.5 855.53,-168.5"/>
</g>
<!-- TruncamientoPipe -->
<g id="node10" class="node">
<title>TruncamientoPipe</title>
<polygon fill="#ffffb3" stroke="black" points="152.92,-122 33.08,-122 33.08,-86 152.92,-86 152.92,-122"/>
<text text-anchor="middle" x="93" y="-99.8" font-family="Times,serif" font-size="14.00">TruncamientoPipe</text>
</g>
<!-- TruncamientoPipe&#45;&gt;SharedModule -->
<g id="edge11" class="edge">
<title>TruncamientoPipe&#45;&gt;SharedModule</title>
<path fill="none" stroke="black" d="M108.74,-122.17C108.74,-141.09 108.74,-168 108.74,-168 108.74,-168 855.78,-168 855.78,-168"/>
<polygon fill="black" stroke="black" points="855.78,-171.5 865.78,-168 855.78,-164.5 855.78,-171.5"/>
</g>
<!-- AddExerciseComponent  -->
<g id="node12" class="node">
<title>AddExerciseComponent </title>
<polygon fill="#fb8072" stroke="black" points="1674.63,-252 1517.37,-252 1517.37,-216 1674.63,-216 1674.63,-252"/>
<text text-anchor="middle" x="1596" y="-229.8" font-family="Times,serif" font-size="14.00">AddExerciseComponent </text>
</g>
<!-- SharedModule&#45;&gt;AddExerciseComponent  -->
<g id="edge12" class="edge">
<title>SharedModule&#45;&gt;AddExerciseComponent </title>
<path fill="none" stroke="black" stroke-dasharray="5,2" d="M964.4,-173C1118.97,-173 1583.12,-173 1583.12,-173 1583.12,-173 1583.12,-205.7 1583.12,-205.7"/>
<polygon fill="black" stroke="black" points="1579.63,-205.7 1583.12,-215.7 1586.63,-205.7 1579.63,-205.7"/>
</g>
<!-- AgrandarDirective  -->
<g id="node13" class="node">
<title>AgrandarDirective </title>
<polygon fill="#fb8072" stroke="black" points="1499.44,-252 1374.56,-252 1374.56,-216 1499.44,-216 1499.44,-252"/>
<text text-anchor="middle" x="1437" y="-229.8" font-family="Times,serif" font-size="14.00">AgrandarDirective </text>
</g>
<!-- SharedModule&#45;&gt;AgrandarDirective  -->
<g id="edge13" class="edge">
<title>SharedModule&#45;&gt;AgrandarDirective </title>
<path fill="none" stroke="black" stroke-dasharray="5,2" d="M964.47,-177C1092.75,-177 1426.12,-177 1426.12,-177 1426.12,-177 1426.12,-205.96 1426.12,-205.96"/>
<polygon fill="black" stroke="black" points="1422.63,-205.96 1426.12,-215.96 1429.63,-205.96 1422.63,-205.96"/>
</g>
<!-- CardExerciseComponent  -->
<g id="node14" class="node">
<title>CardExerciseComponent </title>
<polygon fill="#fb8072" stroke="black" points="1357.24,-252 1196.76,-252 1196.76,-216 1357.24,-216 1357.24,-252"/>
<text text-anchor="middle" x="1277" y="-229.8" font-family="Times,serif" font-size="14.00">CardExerciseComponent </text>
</g>
<!-- SharedModule&#45;&gt;CardExerciseComponent  -->
<g id="edge14" class="edge">
<title>SharedModule&#45;&gt;CardExerciseComponent </title>
<path fill="none" stroke="black" stroke-dasharray="5,2" d="M964.4,-180C1061.45,-180 1267.62,-180 1267.62,-180 1267.62,-180 1267.62,-205.72 1267.62,-205.72"/>
<polygon fill="black" stroke="black" points="1264.13,-205.72 1267.62,-215.72 1271.13,-205.72 1264.13,-205.72"/>
</g>
<!-- CardRutineComponent  -->
<g id="node15" class="node">
<title>CardRutineComponent </title>
<polygon fill="#fb8072" stroke="black" points="1178.88,-252 1029.12,-252 1029.12,-216 1178.88,-216 1178.88,-252"/>
<text text-anchor="middle" x="1104" y="-229.8" font-family="Times,serif" font-size="14.00">CardRutineComponent </text>
</g>
<!-- SharedModule&#45;&gt;CardRutineComponent  -->
<g id="edge15" class="edge">
<title>SharedModule&#45;&gt;CardRutineComponent </title>
<path fill="none" stroke="black" stroke-dasharray="5,2" d="M964.63,-184C1018.41,-184 1096.62,-184 1096.62,-184 1096.62,-184 1096.62,-205.95 1096.62,-205.95"/>
<polygon fill="black" stroke="black" points="1093.13,-205.95 1096.62,-215.95 1100.13,-205.95 1093.13,-205.95"/>
</g>
<!-- DetalleExerciseComponent  -->
<g id="node16" class="node">
<title>DetalleExerciseComponent </title>
<polygon fill="#fb8072" stroke="black" points="1011.95,-252 838.05,-252 838.05,-216 1011.95,-216 1011.95,-252"/>
<text text-anchor="middle" x="925" y="-229.8" font-family="Times,serif" font-size="14.00">DetalleExerciseComponent </text>
</g>
<!-- SharedModule&#45;&gt;DetalleExerciseComponent  -->
<g id="edge16" class="edge">
<title>SharedModule&#45;&gt;DetalleExerciseComponent </title>
<path fill="none" stroke="black" stroke-dasharray="5,2" d="M915,-187.11C915,-187.11 915,-205.99 915,-205.99"/>
<polygon fill="black" stroke="black" points="911.5,-205.99 915,-215.99 918.5,-205.99 911.5,-205.99"/>
</g>
<!-- LoadingComponent  -->
<g id="node17" class="node">
<title>LoadingComponent </title>
<polygon fill="#fb8072" stroke="black" points="820.99,-252 689.01,-252 689.01,-216 820.99,-216 820.99,-252"/>
<text text-anchor="middle" x="755" y="-229.8" font-family="Times,serif" font-size="14.00">LoadingComponent </text>
</g>
<!-- SharedModule&#45;&gt;LoadingComponent  -->
<g id="edge17" class="edge">
<title>SharedModule&#45;&gt;LoadingComponent </title>
<path fill="none" stroke="black" stroke-dasharray="5,2" d="M865.69,-184C841.03,-184 816.37,-184 816.37,-184 816.37,-184 816.37,-205.95 816.37,-205.95"/>
<polygon fill="black" stroke="black" points="812.87,-205.95 816.37,-215.95 819.87,-205.95 812.87,-205.95"/>
</g>
<!-- ModalCitaComponent  -->
<g id="node18" class="node">
<title>ModalCitaComponent </title>
<polygon fill="#fb8072" stroke="black" points="671.21,-252 526.79,-252 526.79,-216 671.21,-216 671.21,-252"/>
<text text-anchor="middle" x="599" y="-229.8" font-family="Times,serif" font-size="14.00">ModalCitaComponent </text>
</g>
<!-- SharedModule&#45;&gt;ModalCitaComponent  -->
<g id="edge18" class="edge">
<title>SharedModule&#45;&gt;ModalCitaComponent </title>
<path fill="none" stroke="black" stroke-dasharray="5,2" d="M865.5,-181C781.32,-181 619.29,-181 619.29,-181 619.29,-181 619.29,-205.76 619.29,-205.76"/>
<polygon fill="black" stroke="black" points="615.79,-205.76 619.29,-215.76 622.79,-205.76 615.79,-205.76"/>
</g>
<!-- ModalConfirmComponent  -->
<g id="node19" class="node">
<title>ModalConfirmComponent </title>
<polygon fill="#fb8072" stroke="black" points="508.32,-252 339.68,-252 339.68,-216 508.32,-216 508.32,-252"/>
<text text-anchor="middle" x="424" y="-229.8" font-family="Times,serif" font-size="14.00">ModalConfirmComponent </text>
</g>
<!-- SharedModule&#45;&gt;ModalConfirmComponent  -->
<g id="edge19" class="edge">
<title>SharedModule&#45;&gt;ModalConfirmComponent </title>
<path fill="none" stroke="black" stroke-dasharray="5,2" d="M865.75,-178C736.31,-178 396.45,-178 396.45,-178 396.45,-178 396.45,-205.97 396.45,-205.97"/>
<polygon fill="black" stroke="black" points="392.95,-205.97 396.45,-215.97 399.95,-205.97 392.95,-205.97"/>
</g>
<!-- PrimeraLetraMayusPipe  -->
<g id="node20" class="node">
<title>PrimeraLetraMayusPipe </title>
<polygon fill="#fb8072" stroke="black" points="321.34,-252 164.66,-252 164.66,-216 321.34,-216 321.34,-252"/>
<text text-anchor="middle" x="243" y="-229.8" font-family="Times,serif" font-size="14.00">PrimeraLetraMayusPipe </text>
</g>
<!-- SharedModule&#45;&gt;PrimeraLetraMayusPipe  -->
<g id="edge20" class="edge">
<title>SharedModule&#45;&gt;PrimeraLetraMayusPipe </title>
<path fill="none" stroke="black" stroke-dasharray="5,2" d="M865.63,-174C707.03,-174 220.78,-174 220.78,-174 220.78,-174 220.78,-206 220.78,-206"/>
<polygon fill="black" stroke="black" points="217.28,-206 220.78,-216 224.28,-206 217.28,-206"/>
</g>
<!-- TruncamientoPipe  -->
<g id="node21" class="node">
<title>TruncamientoPipe </title>
<polygon fill="#fb8072" stroke="black" points="146.42,-252 23.58,-252 23.58,-216 146.42,-216 146.42,-252"/>
<text text-anchor="middle" x="85" y="-229.8" font-family="Times,serif" font-size="14.00">TruncamientoPipe </text>
</g>
<!-- SharedModule&#45;&gt;TruncamientoPipe  -->
<g id="edge21" class="edge">
<title>SharedModule&#45;&gt;TruncamientoPipe </title>
<path fill="none" stroke="black" stroke-dasharray="5,2" d="M865.67,-171C685.15,-171 71.01,-171 71.01,-171 71.01,-171 71.01,-205.78 71.01,-205.78"/>
<polygon fill="black" stroke="black" points="67.51,-205.78 71.01,-215.78 74.51,-205.78 67.51,-205.78"/>
</g>
</g>
</svg>
