<?xml version="1.0" encoding="UTF-8" standalone="no"?>
<!DOCTYPE svg PUBLIC "-//W3C//DTD SVG 1.1//EN"
 "http://www.w3.org/Graphics/SVG/1.1/DTD/svg11.dtd">
<!-- Generated by graphviz version 2.47.0 (20210316.0004)
 -->
<!-- Title: dependencies Pages: 1 -->
<svg width="937pt" height="211pt"
 viewBox="0.00 0.00 937.00 211.00" xmlns="http://www.w3.org/2000/svg" xmlns:xlink="http://www.w3.org/1999/xlink">
<g id="graph0" class="graph" transform="scale(1 1) rotate(0) translate(4 207)">
<title>dependencies</title>
<polygon fill="white" stroke="transparent" points="-4,4 -4,-207 933,-207 933,4 -4,4"/>
<text text-anchor="start" x="443.51" y="-42.4" font-family="Times-12" font-weight="bold" font-size="14.00">Legend</text>
<polygon fill="#ffffb3" stroke="transparent" points="230.5,-10 230.5,-30 250.5,-30 250.5,-10 230.5,-10"/>
<text text-anchor="start" x="254.13" y="-15.4" font-family="Times-12" font-size="14.00"> &#160;Declarations</text>
<polygon fill="#8dd3c7" stroke="transparent" points="343.5,-10 343.5,-30 363.5,-30 363.5,-10 343.5,-10"/>
<text text-anchor="start" x="367.23" y="-15.4" font-family="Times-12" font-size="14.00"> &#160;Module</text>
<polygon fill="#80b1d3" stroke="transparent" points="429.5,-10 429.5,-30 449.5,-30 449.5,-10 429.5,-10"/>
<text text-anchor="start" x="453.28" y="-15.4" font-family="Times-12" font-size="14.00"> &#160;Bootstrap</text>
<polygon fill="#fdb462" stroke="transparent" points="526.5,-10 526.5,-30 546.5,-30 546.5,-10 526.5,-10"/>
<text text-anchor="start" x="550.17" y="-15.4" font-family="Times-12" font-size="14.00"> &#160;Providers</text>
<polygon fill="#fb8072" stroke="transparent" points="622.5,-10 622.5,-30 642.5,-30 642.5,-10 622.5,-10"/>
<text text-anchor="start" x="646.23" y="-15.4" font-family="Times-12" font-size="14.00"> &#160;Exports</text>
<g id="clust1" class="cluster">
<title>cluster_LoginPageModule</title>
<polygon fill="none" stroke="black" stroke-dasharray="1,5" points="8,-70 8,-195 921,-195 921,-70 8,-70"/>
</g>
<g id="clust2" class="cluster">
<title>cluster_LoginPageModule_declarations</title>
<polygon fill="none" stroke="black" points="322,-78 322,-130 913,-130 913,-78 322,-78"/>
</g>
<g id="clust7" class="cluster">
<title>cluster_LoginPageModule_imports</title>
<polygon fill="none" stroke="black" points="16,-78 16,-130 314,-130 314,-78 16,-78"/>
</g>
<!-- InfoModalComponent -->
<g id="node1" class="node">
<title>InfoModalComponent</title>
<polygon fill="#ffffb3" stroke="black" points="904.7,-122 763.3,-122 763.3,-86 904.7,-86 904.7,-122"/>
<text text-anchor="middle" x="834" y="-99.8" font-family="Times,serif" font-size="14.00">InfoModalComponent</text>
</g>
<!-- LoginPageModule -->
<g id="node5" class="node">
<title>LoginPageModule</title>
<polygon fill="#8dd3c7" stroke="black" points="536.2,-187 533.2,-191 512.2,-191 509.2,-187 415.8,-187 415.8,-151 536.2,-151 536.2,-187"/>
<text text-anchor="middle" x="476" y="-164.8" font-family="Times,serif" font-size="14.00">LoginPageModule</text>
</g>
<!-- InfoModalComponent&#45;&gt;LoginPageModule -->
<g id="edge1" class="edge">
<title>InfoModalComponent&#45;&gt;LoginPageModule</title>
<path fill="none" stroke="black" d="M834,-122.28C834,-143.32 834,-175 834,-175 834,-175 546.32,-175 546.32,-175"/>
<polygon fill="black" stroke="black" points="546.33,-171.5 536.32,-175 546.32,-178.5 546.33,-171.5"/>
</g>
<!-- LoginFormComponent -->
<g id="node2" class="node">
<title>LoginFormComponent</title>
<polygon fill="#ffffb3" stroke="black" points="745.61,-122 600.39,-122 600.39,-86 745.61,-86 745.61,-122"/>
<text text-anchor="middle" x="673" y="-99.8" font-family="Times,serif" font-size="14.00">LoginFormComponent</text>
</g>
<!-- LoginFormComponent&#45;&gt;LoginPageModule -->
<g id="edge2" class="edge">
<title>LoginFormComponent&#45;&gt;LoginPageModule</title>
<path fill="none" stroke="black" d="M673,-122.02C673,-139.37 673,-163 673,-163 673,-163 546.18,-163 546.18,-163"/>
<polygon fill="black" stroke="black" points="546.18,-159.5 536.18,-163 546.18,-166.5 546.18,-159.5"/>
</g>
<!-- LoginPage -->
<g id="node3" class="node">
<title>LoginPage</title>
<polygon fill="#ffffb3" stroke="black" points="582.16,-122 505.84,-122 505.84,-86 582.16,-86 582.16,-122"/>
<text text-anchor="middle" x="544" y="-99.8" font-family="Times,serif" font-size="14.00">LoginPage</text>
</g>
<!-- LoginPage&#45;&gt;LoginPageModule -->
<g id="edge3" class="edge">
<title>LoginPage&#45;&gt;LoginPageModule</title>
<path fill="none" stroke="black" d="M520.89,-122.11C520.89,-122.11 520.89,-140.99 520.89,-140.99"/>
<polygon fill="black" stroke="black" points="517.39,-140.99 520.89,-150.99 524.39,-140.99 517.39,-140.99"/>
</g>
<!-- RegisterFormComponent -->
<g id="node4" class="node">
<title>RegisterFormComponent</title>
<polygon fill="#ffffb3" stroke="black" points="488.32,-122 329.68,-122 329.68,-86 488.32,-86 488.32,-122"/>
<text text-anchor="middle" x="409" y="-99.8" font-family="Times,serif" font-size="14.00">RegisterFormComponent</text>
</g>
<!-- RegisterFormComponent&#45;&gt;LoginPageModule -->
<g id="edge4" class="edge">
<title>RegisterFormComponent&#45;&gt;LoginPageModule</title>
<path fill="none" stroke="black" d="M452.03,-122.11C452.03,-122.11 452.03,-140.99 452.03,-140.99"/>
<polygon fill="black" stroke="black" points="448.53,-140.99 452.03,-150.99 455.53,-140.99 448.53,-140.99"/>
</g>
<!-- LoginPageRoutingModule -->
<g id="node6" class="node">
<title>LoginPageRoutingModule</title>
<polygon fill="#8dd3c7" stroke="black" points="305.82,-122 302.82,-126 281.82,-126 278.82,-122 140.18,-122 140.18,-86 305.82,-86 305.82,-122"/>
<text text-anchor="middle" x="223" y="-99.8" font-family="Times,serif" font-size="14.00">LoginPageRoutingModule</text>
</g>
<!-- LoginPageRoutingModule&#45;&gt;LoginPageModule -->
<g id="edge5" class="edge">
<title>LoginPageRoutingModule&#45;&gt;LoginPageModule</title>
<path fill="none" stroke="black" d="M223,-122.02C223,-139.37 223,-163 223,-163 223,-163 405.72,-163 405.72,-163"/>
<polygon fill="black" stroke="black" points="405.72,-166.5 415.72,-163 405.72,-159.5 405.72,-166.5"/>
</g>
<!-- SharedModule -->
<g id="node7" class="node">
<title>SharedModule</title>
<polygon fill="#8dd3c7" stroke="black" points="122.42,-122 119.42,-126 98.42,-126 95.42,-122 23.58,-122 23.58,-86 122.42,-86 122.42,-122"/>
<text text-anchor="middle" x="73" y="-99.8" font-family="Times,serif" font-size="14.00">SharedModule</text>
</g>
<!-- SharedModule&#45;&gt;LoginPageModule -->
<g id="edge6" class="edge">
<title>SharedModule&#45;&gt;LoginPageModule</title>
<path fill="none" stroke="black" d="M73,-122.28C73,-143.32 73,-175 73,-175 73,-175 405.67,-175 405.67,-175"/>
<polygon fill="black" stroke="black" points="405.67,-178.5 415.67,-175 405.67,-171.5 405.67,-178.5"/>
</g>
</g>
</svg>
