<?xml version="1.0" encoding="UTF-8" standalone="no"?>
<!DOCTYPE svg PUBLIC "-//W3C//DTD SVG 1.1//EN"
 "http://www.w3.org/Graphics/SVG/1.1/DTD/svg11.dtd">
<!-- Generated by graphviz version 2.47.0 (20210316.0004)
 -->
<!-- Title: dependencies Pages: 1 -->
<svg width="661pt" height="211pt"
 viewBox="0.00 0.00 661.00 211.00" xmlns="http://www.w3.org/2000/svg" xmlns:xlink="http://www.w3.org/1999/xlink">
<g id="graph0" class="graph" transform="scale(1 1) rotate(0) translate(4 207)">
<title>dependencies</title>
<polygon fill="white" stroke="transparent" points="-4,4 -4,-207 657,-207 657,4 -4,4"/>
<text text-anchor="start" x="305.51" y="-42.4" font-family="Times-12" font-weight="bold" font-size="14.00">Legend</text>
<polygon fill="#ffffb3" stroke="transparent" points="92.5,-10 92.5,-30 112.5,-30 112.5,-10 92.5,-10"/>
<text text-anchor="start" x="116.13" y="-15.4" font-family="Times-12" font-size="14.00"> &#160;Declarations</text>
<polygon fill="#8dd3c7" stroke="transparent" points="205.5,-10 205.5,-30 225.5,-30 225.5,-10 205.5,-10"/>
<text text-anchor="start" x="229.23" y="-15.4" font-family="Times-12" font-size="14.00"> &#160;Module</text>
<polygon fill="#80b1d3" stroke="transparent" points="291.5,-10 291.5,-30 311.5,-30 311.5,-10 291.5,-10"/>
<text text-anchor="start" x="315.28" y="-15.4" font-family="Times-12" font-size="14.00"> &#160;Bootstrap</text>
<polygon fill="#fdb462" stroke="transparent" points="388.5,-10 388.5,-30 408.5,-30 408.5,-10 388.5,-10"/>
<text text-anchor="start" x="412.17" y="-15.4" font-family="Times-12" font-size="14.00"> &#160;Providers</text>
<polygon fill="#fb8072" stroke="transparent" points="484.5,-10 484.5,-30 504.5,-30 504.5,-10 484.5,-10"/>
<text text-anchor="start" x="508.23" y="-15.4" font-family="Times-12" font-size="14.00"> &#160;Exports</text>
<g id="clust1" class="cluster">
<title>cluster_RutinasPageModule</title>
<polygon fill="none" stroke="black" stroke-dasharray="1,5" points="8,-70 8,-195 645,-195 645,-70 8,-70"/>
</g>
<g id="clust5" class="cluster">
<title>cluster_RutinasPageModule_imports</title>
<polygon fill="none" stroke="black" points="330,-78 330,-130 637,-130 637,-78 330,-78"/>
</g>
<g id="clust2" class="cluster">
<title>cluster_RutinasPageModule_declarations</title>
<polygon fill="none" stroke="black" points="16,-78 16,-130 322,-130 322,-78 16,-78"/>
</g>
<!-- CardRutinePrivateComponent -->
<g id="node1" class="node">
<title>CardRutinePrivateComponent</title>
<polygon fill="#ffffb3" stroke="black" points="313.53,-122 128.47,-122 128.47,-86 313.53,-86 313.53,-122"/>
<text text-anchor="middle" x="221" y="-99.8" font-family="Times,serif" font-size="14.00">CardRutinePrivateComponent</text>
</g>
<!-- RutinasPageModule -->
<g id="node3" class="node">
<title>RutinasPageModule</title>
<polygon fill="#8dd3c7" stroke="black" points="368.54,-187 365.54,-191 344.54,-191 341.54,-187 239.46,-187 239.46,-151 368.54,-151 368.54,-187"/>
<text text-anchor="middle" x="304" y="-164.8" font-family="Times,serif" font-size="14.00">RutinasPageModule</text>
</g>
<!-- CardRutinePrivateComponent&#45;&gt;RutinasPageModule -->
<g id="edge1" class="edge">
<title>CardRutinePrivateComponent&#45;&gt;RutinasPageModule</title>
<path fill="none" stroke="black" d="M276.5,-122.11C276.5,-122.11 276.5,-140.99 276.5,-140.99"/>
<polygon fill="black" stroke="black" points="273,-140.99 276.5,-150.99 280,-140.99 273,-140.99"/>
</g>
<!-- RutinasPage -->
<g id="node2" class="node">
<title>RutinasPage</title>
<polygon fill="#ffffb3" stroke="black" points="109.99,-122 24.01,-122 24.01,-86 109.99,-86 109.99,-122"/>
<text text-anchor="middle" x="67" y="-99.8" font-family="Times,serif" font-size="14.00">RutinasPage</text>
</g>
<!-- RutinasPage&#45;&gt;RutinasPageModule -->
<g id="edge2" class="edge">
<title>RutinasPage&#45;&gt;RutinasPageModule</title>
<path fill="none" stroke="black" d="M67,-122.11C67,-141.34 67,-169 67,-169 67,-169 229.24,-169 229.24,-169"/>
<polygon fill="black" stroke="black" points="229.24,-172.5 239.24,-169 229.24,-165.5 229.24,-172.5"/>
</g>
<!-- RutinasPageRoutingModule -->
<g id="node4" class="node">
<title>RutinasPageRoutingModule</title>
<polygon fill="#8dd3c7" stroke="black" points="629.16,-122 626.16,-126 605.16,-126 602.16,-122 454.84,-122 454.84,-86 629.16,-86 629.16,-122"/>
<text text-anchor="middle" x="542" y="-99.8" font-family="Times,serif" font-size="14.00">RutinasPageRoutingModule</text>
</g>
<!-- RutinasPageRoutingModule&#45;&gt;RutinasPageModule -->
<g id="edge3" class="edge">
<title>RutinasPageRoutingModule&#45;&gt;RutinasPageModule</title>
<path fill="none" stroke="black" d="M542,-122.11C542,-141.34 542,-169 542,-169 542,-169 378.72,-169 378.72,-169"/>
<polygon fill="black" stroke="black" points="378.72,-165.5 368.72,-169 378.72,-172.5 378.72,-165.5"/>
</g>
<!-- SharedModule -->
<g id="node5" class="node">
<title>SharedModule</title>
<polygon fill="#8dd3c7" stroke="black" points="436.42,-122 433.42,-126 412.42,-126 409.42,-122 337.58,-122 337.58,-86 436.42,-86 436.42,-122"/>
<text text-anchor="middle" x="387" y="-99.8" font-family="Times,serif" font-size="14.00">SharedModule</text>
</g>
<!-- SharedModule&#45;&gt;RutinasPageModule -->
<g id="edge4" class="edge">
<title>SharedModule&#45;&gt;RutinasPageModule</title>
<path fill="none" stroke="black" d="M353.28,-122.11C353.28,-122.11 353.28,-140.99 353.28,-140.99"/>
<polygon fill="black" stroke="black" points="349.78,-140.99 353.28,-150.99 356.78,-140.99 349.78,-140.99"/>
</g>
</g>
</svg>
