<?xml version="1.0" encoding="UTF-8" standalone="no"?>
<!DOCTYPE svg PUBLIC "-//W3C//DTD SVG 1.1//EN"
 "http://www.w3.org/Graphics/SVG/1.1/DTD/svg11.dtd">
<!-- Generated by graphviz version 2.47.0 (20210316.0004)
 -->
<!-- Title: dependencies Pages: 1 -->
<svg width="504pt" height="211pt"
 viewBox="0.00 0.00 504.00 211.00" xmlns="http://www.w3.org/2000/svg" xmlns:xlink="http://www.w3.org/1999/xlink">
<g id="graph0" class="graph" transform="scale(1 1) rotate(0) translate(4 207)">
<title>dependencies</title>
<polygon fill="white" stroke="transparent" points="-4,4 -4,-207 500,-207 500,4 -4,4"/>
<text text-anchor="start" x="227.01" y="-42.4" font-family="Times-12" font-weight="bold" font-size="14.00">Legend</text>
<polygon fill="#ffffb3" stroke="transparent" points="14,-10 14,-30 34,-30 34,-10 14,-10"/>
<text text-anchor="start" x="37.63" y="-15.4" font-family="Times-12" font-size="14.00"> &#160;Declarations</text>
<polygon fill="#8dd3c7" stroke="transparent" points="127,-10 127,-30 147,-30 147,-10 127,-10"/>
<text text-anchor="start" x="150.73" y="-15.4" font-family="Times-12" font-size="14.00"> &#160;Module</text>
<polygon fill="#80b1d3" stroke="transparent" points="213,-10 213,-30 233,-30 233,-10 213,-10"/>
<text text-anchor="start" x="236.78" y="-15.4" font-family="Times-12" font-size="14.00"> &#160;Bootstrap</text>
<polygon fill="#fdb462" stroke="transparent" points="310,-10 310,-30 330,-30 330,-10 310,-10"/>
<text text-anchor="start" x="333.67" y="-15.4" font-family="Times-12" font-size="14.00"> &#160;Providers</text>
<polygon fill="#fb8072" stroke="transparent" points="406,-10 406,-30 426,-30 426,-10 406,-10"/>
<text text-anchor="start" x="429.73" y="-15.4" font-family="Times-12" font-size="14.00"> &#160;Exports</text>
<g id="clust1" class="cluster">
<title>cluster_LandingPageModule</title>
<polygon fill="none" stroke="black" stroke-dasharray="1,5" points="28,-70 28,-195 468,-195 468,-70 28,-70"/>
</g>
<g id="clust2" class="cluster">
<title>cluster_LandingPageModule_declarations</title>
<polygon fill="none" stroke="black" points="354,-78 354,-130 460,-130 460,-78 354,-78"/>
</g>
<g id="clust4" class="cluster">
<title>cluster_LandingPageModule_imports</title>
<polygon fill="none" stroke="black" points="36,-78 36,-130 346,-130 346,-78 36,-78"/>
</g>
<!-- LandingPage -->
<g id="node1" class="node">
<title>LandingPage</title>
<polygon fill="#ffffb3" stroke="black" points="451.87,-122 362.13,-122 362.13,-86 451.87,-86 451.87,-122"/>
<text text-anchor="middle" x="407" y="-99.8" font-family="Times,serif" font-size="14.00">LandingPage</text>
</g>
<!-- LandingPageModule -->
<g id="node2" class="node">
<title>LandingPageModule</title>
<polygon fill="#8dd3c7" stroke="black" points="315.92,-187 312.92,-191 291.92,-191 288.92,-187 182.08,-187 182.08,-151 315.92,-151 315.92,-187"/>
<text text-anchor="middle" x="249" y="-164.8" font-family="Times,serif" font-size="14.00">LandingPageModule</text>
</g>
<!-- LandingPage&#45;&gt;LandingPageModule -->
<g id="edge1" class="edge">
<title>LandingPage&#45;&gt;LandingPageModule</title>
<path fill="none" stroke="black" d="M407,-122.11C407,-141.34 407,-169 407,-169 407,-169 326.01,-169 326.01,-169"/>
<polygon fill="black" stroke="black" points="326.01,-165.5 316.01,-169 326.01,-172.5 326.01,-165.5"/>
</g>
<!-- LandingPageRoutingModule -->
<g id="node3" class="node">
<title>LandingPageRoutingModule</title>
<polygon fill="#8dd3c7" stroke="black" points="338.04,-122 335.04,-126 314.04,-126 311.04,-122 159.96,-122 159.96,-86 338.04,-86 338.04,-122"/>
<text text-anchor="middle" x="249" y="-99.8" font-family="Times,serif" font-size="14.00">LandingPageRoutingModule</text>
</g>
<!-- LandingPageRoutingModule&#45;&gt;LandingPageModule -->
<g id="edge2" class="edge">
<title>LandingPageRoutingModule&#45;&gt;LandingPageModule</title>
<path fill="none" stroke="black" d="M249,-122.11C249,-122.11 249,-140.99 249,-140.99"/>
<polygon fill="black" stroke="black" points="245.5,-140.99 249,-150.99 252.5,-140.99 245.5,-140.99"/>
</g>
<!-- SharedModule -->
<g id="node4" class="node">
<title>SharedModule</title>
<polygon fill="#8dd3c7" stroke="black" points="142.42,-122 139.42,-126 118.42,-126 115.42,-122 43.58,-122 43.58,-86 142.42,-86 142.42,-122"/>
<text text-anchor="middle" x="93" y="-99.8" font-family="Times,serif" font-size="14.00">SharedModule</text>
</g>
<!-- SharedModule&#45;&gt;LandingPageModule -->
<g id="edge3" class="edge">
<title>SharedModule&#45;&gt;LandingPageModule</title>
<path fill="none" stroke="black" d="M93,-122.11C93,-141.34 93,-169 93,-169 93,-169 171.94,-169 171.94,-169"/>
<polygon fill="black" stroke="black" points="171.94,-172.5 181.94,-169 171.94,-165.5 171.94,-172.5"/>
</g>
</g>
</svg>
