<?xml version="1.0" encoding="UTF-8" standalone="no"?>
<!DOCTYPE svg PUBLIC "-//W3C//DTD SVG 1.1//EN"
 "http://www.w3.org/Graphics/SVG/1.1/DTD/svg11.dtd">
<!-- Generated by graphviz version 2.47.0 (20210316.0004)
 -->
<!-- Title: dependencies Pages: 1 -->
<svg width="504pt" height="211pt"
 viewBox="0.00 0.00 504.00 211.00" xmlns="http://www.w3.org/2000/svg" xmlns:xlink="http://www.w3.org/1999/xlink">
<g id="graph0" class="graph" transform="scale(1 1) rotate(0) translate(4 207)">
<title>dependencies</title>
<polygon fill="white" stroke="transparent" points="-4,4 -4,-207 500,-207 500,4 -4,4"/>
<text text-anchor="start" x="227.01" y="-42.4" font-family="Times-12" font-weight="bold" font-size="14.00">Legend</text>
<polygon fill="#ffffb3" stroke="transparent" points="14,-10 14,-30 34,-30 34,-10 14,-10"/>
<text text-anchor="start" x="37.63" y="-15.4" font-family="Times-12" font-size="14.00"> &#160;Declarations</text>
<polygon fill="#8dd3c7" stroke="transparent" points="127,-10 127,-30 147,-30 147,-10 127,-10"/>
<text text-anchor="start" x="150.73" y="-15.4" font-family="Times-12" font-size="14.00"> &#160;Module</text>
<polygon fill="#80b1d3" stroke="transparent" points="213,-10 213,-30 233,-30 233,-10 213,-10"/>
<text text-anchor="start" x="236.78" y="-15.4" font-family="Times-12" font-size="14.00"> &#160;Bootstrap</text>
<polygon fill="#fdb462" stroke="transparent" points="310,-10 310,-30 330,-30 330,-10 310,-10"/>
<text text-anchor="start" x="333.67" y="-15.4" font-family="Times-12" font-size="14.00"> &#160;Providers</text>
<polygon fill="#fb8072" stroke="transparent" points="406,-10 406,-30 426,-30 426,-10 406,-10"/>
<text text-anchor="start" x="429.73" y="-15.4" font-family="Times-12" font-size="14.00"> &#160;Exports</text>
<g id="clust1" class="cluster">
<title>cluster_CitasPageModule</title>
<polygon fill="none" stroke="black" stroke-dasharray="1,5" points="45.5,-70 45.5,-195 450.5,-195 450.5,-70 45.5,-70"/>
</g>
<g id="clust2" class="cluster">
<title>cluster_CitasPageModule_declarations</title>
<polygon fill="none" stroke="black" points="354.5,-78 354.5,-130 442.5,-130 442.5,-78 354.5,-78"/>
</g>
<g id="clust4" class="cluster">
<title>cluster_CitasPageModule_imports</title>
<polygon fill="none" stroke="black" points="53.5,-78 53.5,-130 346.5,-130 346.5,-78 53.5,-78"/>
</g>
<!-- CitasPage -->
<g id="node1" class="node">
<title>CitasPage</title>
<polygon fill="#ffffb3" stroke="black" points="434.49,-122 362.51,-122 362.51,-86 434.49,-86 434.49,-122"/>
<text text-anchor="middle" x="398.5" y="-99.8" font-family="Times,serif" font-size="14.00">CitasPage</text>
</g>
<!-- CitasPageModule -->
<g id="node2" class="node">
<title>CitasPageModule</title>
<polygon fill="#8dd3c7" stroke="black" points="316.04,-187 313.04,-191 292.04,-191 289.04,-187 200.96,-187 200.96,-151 316.04,-151 316.04,-187"/>
<text text-anchor="middle" x="258.5" y="-164.8" font-family="Times,serif" font-size="14.00">CitasPageModule</text>
</g>
<!-- CitasPage&#45;&gt;CitasPageModule -->
<g id="edge1" class="edge">
<title>CitasPage&#45;&gt;CitasPageModule</title>
<path fill="none" stroke="black" d="M398.5,-122.11C398.5,-141.34 398.5,-169 398.5,-169 398.5,-169 326.25,-169 326.25,-169"/>
<polygon fill="black" stroke="black" points="326.25,-165.5 316.25,-169 326.25,-172.5 326.25,-165.5"/>
</g>
<!-- CitasPageRoutingModule -->
<g id="node3" class="node">
<title>CitasPageRoutingModule</title>
<polygon fill="#8dd3c7" stroke="black" points="338.66,-122 335.66,-126 314.66,-126 311.66,-122 178.34,-122 178.34,-86 338.66,-86 338.66,-122"/>
<text text-anchor="middle" x="258.5" y="-99.8" font-family="Times,serif" font-size="14.00">CitasPageRoutingModule</text>
</g>
<!-- CitasPageRoutingModule&#45;&gt;CitasPageModule -->
<g id="edge2" class="edge">
<title>CitasPageRoutingModule&#45;&gt;CitasPageModule</title>
<path fill="none" stroke="black" d="M258.5,-122.11C258.5,-122.11 258.5,-140.99 258.5,-140.99"/>
<polygon fill="black" stroke="black" points="255,-140.99 258.5,-150.99 262,-140.99 255,-140.99"/>
</g>
<!-- SharedModule -->
<g id="node4" class="node">
<title>SharedModule</title>
<polygon fill="#8dd3c7" stroke="black" points="159.92,-122 156.92,-126 135.92,-126 132.92,-122 61.08,-122 61.08,-86 159.92,-86 159.92,-122"/>
<text text-anchor="middle" x="110.5" y="-99.8" font-family="Times,serif" font-size="14.00">SharedModule</text>
</g>
<!-- SharedModule&#45;&gt;CitasPageModule -->
<g id="edge3" class="edge">
<title>SharedModule&#45;&gt;CitasPageModule</title>
<path fill="none" stroke="black" d="M110.5,-122.11C110.5,-141.34 110.5,-169 110.5,-169 110.5,-169 190.86,-169 190.86,-169"/>
<polygon fill="black" stroke="black" points="190.86,-172.5 200.86,-169 190.86,-165.5 190.86,-172.5"/>
</g>
</g>
</svg>
