<?xml version="1.0" encoding="UTF-8" standalone="no"?>
<!DOCTYPE svg PUBLIC "-//W3C//DTD SVG 1.1//EN"
 "http://www.w3.org/Graphics/SVG/1.1/DTD/svg11.dtd">
<!-- Generated by graphviz version 2.47.0 (20210316.0004)
 -->
<!-- Title: dependencies Pages: 1 -->
<svg width="864pt" height="211pt"
 viewBox="0.00 0.00 864.00 211.00" xmlns="http://www.w3.org/2000/svg" xmlns:xlink="http://www.w3.org/1999/xlink">
<g id="graph0" class="graph" transform="scale(1 1) rotate(0) translate(4 207)">
<title>dependencies</title>
<polygon fill="white" stroke="transparent" points="-4,4 -4,-207 860,-207 860,4 -4,4"/>
<text text-anchor="start" x="407.01" y="-42.4" font-family="Times-12" font-weight="bold" font-size="14.00">Legend</text>
<polygon fill="#ffffb3" stroke="transparent" points="194,-10 194,-30 214,-30 214,-10 194,-10"/>
<text text-anchor="start" x="217.63" y="-15.4" font-family="Times-12" font-size="14.00"> &#160;Declarations</text>
<polygon fill="#8dd3c7" stroke="transparent" points="307,-10 307,-30 327,-30 327,-10 307,-10"/>
<text text-anchor="start" x="330.73" y="-15.4" font-family="Times-12" font-size="14.00"> &#160;Module</text>
<polygon fill="#80b1d3" stroke="transparent" points="393,-10 393,-30 413,-30 413,-10 393,-10"/>
<text text-anchor="start" x="416.78" y="-15.4" font-family="Times-12" font-size="14.00"> &#160;Bootstrap</text>
<polygon fill="#fdb462" stroke="transparent" points="490,-10 490,-30 510,-30 510,-10 490,-10"/>
<text text-anchor="start" x="513.67" y="-15.4" font-family="Times-12" font-size="14.00"> &#160;Providers</text>
<polygon fill="#fb8072" stroke="transparent" points="586,-10 586,-30 606,-30 606,-10 586,-10"/>
<text text-anchor="start" x="609.73" y="-15.4" font-family="Times-12" font-size="14.00"> &#160;Exports</text>
<g id="clust1" class="cluster">
<title>cluster_InfoRutinaPageModule</title>
<polygon fill="none" stroke="black" stroke-dasharray="1,5" points="8,-70 8,-195 848,-195 848,-70 8,-70"/>
</g>
<g id="clust6" class="cluster">
<title>cluster_InfoRutinaPageModule_imports</title>
<polygon fill="none" stroke="black" points="516,-78 516,-130 840,-130 840,-78 516,-78"/>
</g>
<g id="clust2" class="cluster">
<title>cluster_InfoRutinaPageModule_declarations</title>
<polygon fill="none" stroke="black" points="16,-78 16,-130 508,-130 508,-78 16,-78"/>
</g>
<!-- ExercisePrivateComponent -->
<g id="node1" class="node">
<title>ExercisePrivateComponent</title>
<polygon fill="#ffffb3" stroke="black" points="499.68,-122 330.32,-122 330.32,-86 499.68,-86 499.68,-122"/>
<text text-anchor="middle" x="415" y="-99.8" font-family="Times,serif" font-size="14.00">ExercisePrivateComponent</text>
</g>
<!-- InfoRutinaPageModule -->
<g id="node4" class="node">
<title>InfoRutinaPageModule</title>
<polygon fill="#8dd3c7" stroke="black" points="488.92,-187 485.92,-191 464.92,-191 461.92,-187 341.08,-187 341.08,-151 488.92,-151 488.92,-187"/>
<text text-anchor="middle" x="415" y="-164.8" font-family="Times,serif" font-size="14.00">InfoRutinaPageModule</text>
</g>
<!-- ExercisePrivateComponent&#45;&gt;InfoRutinaPageModule -->
<g id="edge1" class="edge">
<title>ExercisePrivateComponent&#45;&gt;InfoRutinaPageModule</title>
<path fill="none" stroke="black" d="M415,-122.11C415,-122.11 415,-140.99 415,-140.99"/>
<polygon fill="black" stroke="black" points="411.5,-140.99 415,-150.99 418.5,-140.99 411.5,-140.99"/>
</g>
<!-- InfoRutinaPage -->
<g id="node2" class="node">
<title>InfoRutinaPage</title>
<polygon fill="#ffffb3" stroke="black" points="311.87,-122 208.13,-122 208.13,-86 311.87,-86 311.87,-122"/>
<text text-anchor="middle" x="260" y="-99.8" font-family="Times,serif" font-size="14.00">InfoRutinaPage</text>
</g>
<!-- InfoRutinaPage&#45;&gt;InfoRutinaPageModule -->
<g id="edge2" class="edge">
<title>InfoRutinaPage&#45;&gt;InfoRutinaPageModule</title>
<path fill="none" stroke="black" d="M260,-122.02C260,-139.37 260,-163 260,-163 260,-163 331.13,-163 331.13,-163"/>
<polygon fill="black" stroke="black" points="331.13,-166.5 341.13,-163 331.13,-159.5 331.13,-166.5"/>
</g>
<!-- ModalExerciseComponent -->
<g id="node3" class="node">
<title>ModalExerciseComponent</title>
<polygon fill="#ffffb3" stroke="black" points="190.07,-122 23.93,-122 23.93,-86 190.07,-86 190.07,-122"/>
<text text-anchor="middle" x="107" y="-99.8" font-family="Times,serif" font-size="14.00">ModalExerciseComponent</text>
</g>
<!-- ModalExerciseComponent&#45;&gt;InfoRutinaPageModule -->
<g id="edge3" class="edge">
<title>ModalExerciseComponent&#45;&gt;InfoRutinaPageModule</title>
<path fill="none" stroke="black" d="M107,-122.28C107,-143.32 107,-175 107,-175 107,-175 331.23,-175 331.23,-175"/>
<polygon fill="black" stroke="black" points="331.23,-178.5 341.23,-175 331.23,-171.5 331.23,-178.5"/>
</g>
<!-- InfoRutinaPageRoutingModule -->
<g id="node5" class="node">
<title>InfoRutinaPageRoutingModule</title>
<polygon fill="#8dd3c7" stroke="black" points="832.03,-122 829.03,-126 808.03,-126 805.03,-122 639.97,-122 639.97,-86 832.03,-86 832.03,-122"/>
<text text-anchor="middle" x="736" y="-99.8" font-family="Times,serif" font-size="14.00">InfoRutinaPageRoutingModule</text>
</g>
<!-- InfoRutinaPageRoutingModule&#45;&gt;InfoRutinaPageModule -->
<g id="edge4" class="edge">
<title>InfoRutinaPageRoutingModule&#45;&gt;InfoRutinaPageModule</title>
<path fill="none" stroke="black" d="M736,-122.28C736,-143.32 736,-175 736,-175 736,-175 499.05,-175 499.05,-175"/>
<polygon fill="black" stroke="black" points="499.05,-171.5 489.05,-175 499.05,-178.5 499.05,-171.5"/>
</g>
<!-- SharedModule -->
<g id="node6" class="node">
<title>SharedModule</title>
<polygon fill="#8dd3c7" stroke="black" points="622.42,-122 619.42,-126 598.42,-126 595.42,-122 523.58,-122 523.58,-86 622.42,-86 622.42,-122"/>
<text text-anchor="middle" x="573" y="-99.8" font-family="Times,serif" font-size="14.00">SharedModule</text>
</g>
<!-- SharedModule&#45;&gt;InfoRutinaPageModule -->
<g id="edge5" class="edge">
<title>SharedModule&#45;&gt;InfoRutinaPageModule</title>
<path fill="none" stroke="black" d="M573,-122.02C573,-139.37 573,-163 573,-163 573,-163 498.91,-163 498.91,-163"/>
<polygon fill="black" stroke="black" points="498.91,-159.5 488.91,-163 498.91,-166.5 498.91,-159.5"/>
</g>
</g>
</svg>
