<?xml version="1.0" encoding="UTF-8" standalone="no"?>
<!DOCTYPE svg PUBLIC "-//W3C//DTD SVG 1.1//EN"
 "http://www.w3.org/Graphics/SVG/1.1/DTD/svg11.dtd">
<!-- Generated by graphviz version 2.47.0 (20210316.0004)
 -->
<!-- Title: dependencies Pages: 1 -->
<svg width="508pt" height="211pt"
 viewBox="0.00 0.00 508.00 211.00" xmlns="http://www.w3.org/2000/svg" xmlns:xlink="http://www.w3.org/1999/xlink">
<g id="graph0" class="graph" transform="scale(1 1) rotate(0) translate(4 207)">
<title>dependencies</title>
<polygon fill="white" stroke="transparent" points="-4,4 -4,-207 504,-207 504,4 -4,4"/>
<text text-anchor="start" x="229.01" y="-42.4" font-family="Times-12" font-weight="bold" font-size="14.00">Legend</text>
<polygon fill="#ffffb3" stroke="transparent" points="16,-10 16,-30 36,-30 36,-10 16,-10"/>
<text text-anchor="start" x="39.63" y="-15.4" font-family="Times-12" font-size="14.00"> &#160;Declarations</text>
<polygon fill="#8dd3c7" stroke="transparent" points="129,-10 129,-30 149,-30 149,-10 129,-10"/>
<text text-anchor="start" x="152.73" y="-15.4" font-family="Times-12" font-size="14.00"> &#160;Module</text>
<polygon fill="#80b1d3" stroke="transparent" points="215,-10 215,-30 235,-30 235,-10 215,-10"/>
<text text-anchor="start" x="238.78" y="-15.4" font-family="Times-12" font-size="14.00"> &#160;Bootstrap</text>
<polygon fill="#fdb462" stroke="transparent" points="312,-10 312,-30 332,-30 332,-10 312,-10"/>
<text text-anchor="start" x="335.67" y="-15.4" font-family="Times-12" font-size="14.00"> &#160;Providers</text>
<polygon fill="#fb8072" stroke="transparent" points="408,-10 408,-30 428,-30 428,-10 408,-10"/>
<text text-anchor="start" x="431.73" y="-15.4" font-family="Times-12" font-size="14.00"> &#160;Exports</text>
<g id="clust1" class="cluster">
<title>cluster_CrearRutinaPageModule</title>
<polygon fill="none" stroke="black" stroke-dasharray="1,5" points="8,-70 8,-195 492,-195 492,-70 8,-70"/>
</g>
<g id="clust4" class="cluster">
<title>cluster_CrearRutinaPageModule_imports</title>
<polygon fill="none" stroke="black" points="152,-78 152,-130 484,-130 484,-78 152,-78"/>
</g>
<g id="clust2" class="cluster">
<title>cluster_CrearRutinaPageModule_declarations</title>
<polygon fill="none" stroke="black" points="16,-78 16,-130 144,-130 144,-78 16,-78"/>
</g>
<!-- CrearRutinaPage -->
<g id="node1" class="node">
<title>CrearRutinaPage</title>
<polygon fill="#ffffb3" stroke="black" points="135.63,-122 24.37,-122 24.37,-86 135.63,-86 135.63,-122"/>
<text text-anchor="middle" x="80" y="-99.8" font-family="Times,serif" font-size="14.00">CrearRutinaPage</text>
</g>
<!-- CrearRutinaPageModule -->
<g id="node2" class="node">
<title>CrearRutinaPageModule</title>
<polygon fill="#8dd3c7" stroke="black" points="286.68,-187 283.68,-191 262.68,-191 259.68,-187 131.32,-187 131.32,-151 286.68,-151 286.68,-187"/>
<text text-anchor="middle" x="209" y="-164.8" font-family="Times,serif" font-size="14.00">CrearRutinaPageModule</text>
</g>
<!-- CrearRutinaPage&#45;&gt;CrearRutinaPageModule -->
<g id="edge1" class="edge">
<title>CrearRutinaPage&#45;&gt;CrearRutinaPageModule</title>
<path fill="none" stroke="black" d="M135.68,-104C142.88,-104 147.8,-104 147.8,-104 147.8,-104 147.8,-140.89 147.8,-140.89"/>
<polygon fill="black" stroke="black" points="144.3,-140.89 147.8,-150.89 151.3,-140.89 144.3,-140.89"/>
</g>
<!-- CrearRutinaPageRoutingModule -->
<g id="node3" class="node">
<title>CrearRutinaPageRoutingModule</title>
<polygon fill="#8dd3c7" stroke="black" points="476.3,-122 473.3,-126 452.3,-126 449.3,-122 275.7,-122 275.7,-86 476.3,-86 476.3,-122"/>
<text text-anchor="middle" x="376" y="-99.8" font-family="Times,serif" font-size="14.00">CrearRutinaPageRoutingModule</text>
</g>
<!-- CrearRutinaPageRoutingModule&#45;&gt;CrearRutinaPageModule -->
<g id="edge2" class="edge">
<title>CrearRutinaPageRoutingModule&#45;&gt;CrearRutinaPageModule</title>
<path fill="none" stroke="black" d="M281.22,-122.11C281.22,-122.11 281.22,-140.99 281.22,-140.99"/>
<polygon fill="black" stroke="black" points="277.72,-140.99 281.22,-150.99 284.72,-140.99 277.72,-140.99"/>
</g>
<!-- SharedModule -->
<g id="node4" class="node">
<title>SharedModule</title>
<polygon fill="#8dd3c7" stroke="black" points="258.42,-122 255.42,-126 234.42,-126 231.42,-122 159.58,-122 159.58,-86 258.42,-86 258.42,-122"/>
<text text-anchor="middle" x="209" y="-99.8" font-family="Times,serif" font-size="14.00">SharedModule</text>
</g>
<!-- SharedModule&#45;&gt;CrearRutinaPageModule -->
<g id="edge3" class="edge">
<title>SharedModule&#45;&gt;CrearRutinaPageModule</title>
<path fill="none" stroke="black" d="M209,-122.11C209,-122.11 209,-140.99 209,-140.99"/>
<polygon fill="black" stroke="black" points="205.5,-140.99 209,-150.99 212.5,-140.99 205.5,-140.99"/>
</g>
</g>
</svg>
