<?xml version="1.0" encoding="UTF-8" standalone="no"?>
<!DOCTYPE svg PUBLIC "-//W3C//DTD SVG 1.1//EN"
 "http://www.w3.org/Graphics/SVG/1.1/DTD/svg11.dtd">
<!-- Generated by graphviz version 2.47.0 (20210316.0004)
 -->
<!-- Title: dependencies Pages: 1 -->
<svg width="504pt" height="211pt"
 viewBox="0.00 0.00 504.00 211.00" xmlns="http://www.w3.org/2000/svg" xmlns:xlink="http://www.w3.org/1999/xlink">
<g id="graph0" class="graph" transform="scale(1 1) rotate(0) translate(4 207)">
<title>dependencies</title>
<polygon fill="white" stroke="transparent" points="-4,4 -4,-207 500,-207 500,4 -4,4"/>
<text text-anchor="start" x="227.01" y="-42.4" font-family="Times-12" font-weight="bold" font-size="14.00">Legend</text>
<polygon fill="#ffffb3" stroke="transparent" points="14,-10 14,-30 34,-30 34,-10 14,-10"/>
<text text-anchor="start" x="37.63" y="-15.4" font-family="Times-12" font-size="14.00"> &#160;Declarations</text>
<polygon fill="#8dd3c7" stroke="transparent" points="127,-10 127,-30 147,-30 147,-10 127,-10"/>
<text text-anchor="start" x="150.73" y="-15.4" font-family="Times-12" font-size="14.00"> &#160;Module</text>
<polygon fill="#80b1d3" stroke="transparent" points="213,-10 213,-30 233,-30 233,-10 213,-10"/>
<text text-anchor="start" x="236.78" y="-15.4" font-family="Times-12" font-size="14.00"> &#160;Bootstrap</text>
<polygon fill="#fdb462" stroke="transparent" points="310,-10 310,-30 330,-30 330,-10 310,-10"/>
<text text-anchor="start" x="333.67" y="-15.4" font-family="Times-12" font-size="14.00"> &#160;Providers</text>
<polygon fill="#fb8072" stroke="transparent" points="406,-10 406,-30 426,-30 426,-10 406,-10"/>
<text text-anchor="start" x="429.73" y="-15.4" font-family="Times-12" font-size="14.00"> &#160;Exports</text>
<g id="clust1" class="cluster">
<title>cluster_UsuariosPageModule</title>
<polygon fill="none" stroke="black" stroke-dasharray="1,5" points="25,-70 25,-195 471,-195 471,-70 25,-70"/>
</g>
<g id="clust2" class="cluster">
<title>cluster_UsuariosPageModule_declarations</title>
<polygon fill="none" stroke="black" points="355,-78 355,-130 463,-130 463,-78 355,-78"/>
</g>
<g id="clust4" class="cluster">
<title>cluster_UsuariosPageModule_imports</title>
<polygon fill="none" stroke="black" points="33,-78 33,-130 347,-130 347,-78 33,-78"/>
</g>
<!-- UsuariosPage -->
<g id="node1" class="node">
<title>UsuariosPage</title>
<polygon fill="#ffffb3" stroke="black" points="455.47,-122 362.53,-122 362.53,-86 455.47,-86 455.47,-122"/>
<text text-anchor="middle" x="409" y="-99.8" font-family="Times,serif" font-size="14.00">UsuariosPage</text>
</g>
<!-- UsuariosPageModule -->
<g id="node2" class="node">
<title>UsuariosPageModule</title>
<polygon fill="#8dd3c7" stroke="black" points="358.02,-187 355.02,-191 334.02,-191 331.02,-187 221.98,-187 221.98,-151 358.02,-151 358.02,-187"/>
<text text-anchor="middle" x="290" y="-164.8" font-family="Times,serif" font-size="14.00">UsuariosPageModule</text>
</g>
<!-- UsuariosPage&#45;&gt;UsuariosPageModule -->
<g id="edge1" class="edge">
<title>UsuariosPage&#45;&gt;UsuariosPageModule</title>
<path fill="none" stroke="black" d="M362.41,-104C354.48,-104 348.74,-104 348.74,-104 348.74,-104 348.74,-140.89 348.74,-140.89"/>
<polygon fill="black" stroke="black" points="345.24,-140.89 348.74,-150.89 352.24,-140.89 345.24,-140.89"/>
</g>
<!-- SharedModule -->
<g id="node3" class="node">
<title>SharedModule</title>
<polygon fill="#8dd3c7" stroke="black" points="339.42,-122 336.42,-126 315.42,-126 312.42,-122 240.58,-122 240.58,-86 339.42,-86 339.42,-122"/>
<text text-anchor="middle" x="290" y="-99.8" font-family="Times,serif" font-size="14.00">SharedModule</text>
</g>
<!-- SharedModule&#45;&gt;UsuariosPageModule -->
<g id="edge2" class="edge">
<title>SharedModule&#45;&gt;UsuariosPageModule</title>
<path fill="none" stroke="black" d="M290,-122.11C290,-122.11 290,-140.99 290,-140.99"/>
<polygon fill="black" stroke="black" points="286.5,-140.99 290,-150.99 293.5,-140.99 286.5,-140.99"/>
</g>
<!-- UsuariosPageRoutingModule -->
<g id="node4" class="node">
<title>UsuariosPageRoutingModule</title>
<polygon fill="#8dd3c7" stroke="black" points="222.64,-122 219.64,-126 198.64,-126 195.64,-122 41.36,-122 41.36,-86 222.64,-86 222.64,-122"/>
<text text-anchor="middle" x="132" y="-99.8" font-family="Times,serif" font-size="14.00">UsuariosPageRoutingModule</text>
</g>
<!-- UsuariosPageRoutingModule&#45;&gt;UsuariosPageModule -->
<g id="edge3" class="edge">
<title>UsuariosPageRoutingModule&#45;&gt;UsuariosPageModule</title>
<path fill="none" stroke="black" d="M222.95,-104C228.44,-104 231.8,-104 231.8,-104 231.8,-104 231.8,-140.89 231.8,-140.89"/>
<polygon fill="black" stroke="black" points="228.3,-140.89 231.8,-150.89 235.3,-140.89 228.3,-140.89"/>
</g>
</g>
</svg>
